<svg width="312" height="42" viewBox="0 0 312 42" fill="none" xmlns="http://www.w3.org/2000/svg">
<g clip-path="url(#clip0_7785_14848)">
<path d="M0 0.600098H20.2911L0 10.2076V0.600098Z" fill="#005CA9"/>
<path d="M0 14.0948V20.9555L8.96473 14.7078C7.38245 14.5134 3.21076 13.9877 0 14.0948Z" fill="#005CA9"/>
<path d="M0 24.94L12.3663 15.0615C12.3663 15.0615 20.634 16.4054 25.2639 18.2207L19.0277 27.5569C19.0277 27.5569 11.4803 24.9871 0 24.94Z" fill="#005CA9"/>
<path d="M0 38.9231V27.0381C0.0197387 26.9593 10.7297 27.0411 17.7285 29.5607L11.3742 38.9231H0Z" fill="#005CA9"/>
<path d="M38.2977 38.9231C30.6124 33.5654 21.5125 30.4839 21.3193 30.4331L16.4531 38.9231H38.2977Z" fill="#005CA9"/>
<path d="M22.3584 28.6413L27.8623 19.0693C27.8623 19.0693 35.203 21.9928 38.2975 23.8317V36.5629C38.2975 36.5629 32.256 32.1306 22.3584 28.6413Z" fill="#005CA9"/>
<path d="M28.6729 17.4494L38.2975 0.600098V21.7505C35.6961 20.2477 32.6445 18.864 28.6729 17.4494Z" fill="#005CA9"/>
<path d="M26.3845 16.5492C22.0082 14.682 14.5586 13.415 14.5586 13.415L30.4267 0.600098H37.1748L26.3845 16.5492Z" fill="#005CA9"/>
<path d="M22.3089 0.600098H28.6227L11.5854 12.9482C11.5854 12.9482 2.90637 12.2481 0 12.1814L22.3089 0.600098Z" fill="#005CA9"/>
<path d="M42.3975 4.60248V0.5H63.896V4.60248H55.5966V27.1782L50.6969 27.1546V4.60248H42.3975Z" fill="#005CA9"/>
<path d="M73.688 15.8092C72.1703 7.42116 63.1514 10.8497 63.8498 15.8092H73.688ZM77.8638 18.6108H63.5993C63.5993 18.6108 63.5659 24.3477 68.6102 24.3143C68.6102 24.3143 72.2182 24.9564 73.521 21.2124H77.7302C77.7302 21.2124 77.0287 27.8228 68.4766 27.6891C68.4766 27.6891 59.5237 28.3577 59.3232 17.2927C60.1333 2.51715 80.1399 5.43626 77.8638 18.6108Z" fill="#005CA9"/>
<path d="M110.86 34.8574C110.331 31.9972 107.19 33.1663 107.433 34.8574H110.86ZM112.314 35.8127H107.346C107.346 35.8127 107.334 37.7688 109.091 37.7574C109.091 37.7574 110.348 37.9764 110.802 36.6998H112.268C112.268 36.6998 112.023 38.9538 109.045 38.9082C109.045 38.9082 105.926 39.1361 105.856 35.3632C106.139 30.3251 113.107 31.3204 112.314 35.8127Z" fill="#005CA9"/>
<path d="M80.7949 27.2159V7.90426H84.6791L84.6457 11.7768C85.8892 8.93635 87.5339 7.18095 92.0612 7.36415V11.5762C86.3031 10.5765 84.9982 15.1812 84.9947 18.0614V27.2159H80.7949Z" fill="#005CA9"/>
<path d="M113.659 38.7817V32.2093H115.102L115.09 33.5272C115.552 32.5605 116.164 31.9631 117.847 32.0254V33.4589C115.706 33.1187 115.221 34.6859 115.22 35.6661V38.7817H113.659Z" fill="#005CA9"/>
<path d="M52.1851 38.7583V32.1858H53.6289L53.6165 33.5038C54.0787 32.5371 54.69 31.9397 56.3729 32.002V33.4355C54.2326 33.0953 53.7475 34.6624 53.7462 35.6427V38.7583H52.1851Z" fill="#005CA9"/>
<path d="M94.1939 27.1542L94.1938 7.9994L98.2936 7.96599V10.9077C101.679 4.90451 110.703 6.82665 110.893 13.1475V27.2545H106.793V14.6518C106.331 8.6716 98.6796 10.3984 98.2936 14.7855V27.1542L94.1939 27.1542Z" fill="#005CA9"/>
<path d="M70.6196 38.8898V32.1852L72.1573 32.1735V33.2032C73.4271 31.1019 76.8118 31.7747 76.883 33.9871V38.9249H75.3453V34.5137C75.1721 32.4205 72.3021 33.0249 72.1573 34.5604V38.8897L70.6196 38.8898Z" fill="#005CA9"/>
<path d="M126.07 18.712L125.969 17.3223C125.969 17.3223 123.698 18.4804 121.159 18.5466C121.159 18.5466 117.217 18.3481 117.351 21.9217C117.351 21.9217 117.217 24.8004 121.794 24.3703C121.794 24.3703 126.17 23.6423 126.103 21.0614V19.7047L126.07 18.712ZM130.328 19.7054L130.279 23.5099C130.365 23.5953 129.945 24.5032 132.217 24.2048L132.25 27.249C132.25 27.249 127.105 28.8373 126.304 25.2637C126.304 25.2637 123.497 28.01 119.756 27.5137C119.756 27.5137 113.075 28.2086 112.974 21.5246C112.974 21.5246 112.239 16.7267 120.324 16.0649C120.324 16.0649 126.203 16.2635 126.203 13.3847C126.203 13.3847 126.537 10.9031 121.927 10.8038C121.927 10.8038 118.319 10.506 117.985 13.7156H117.985L113.81 13.8149C113.81 13.8149 113.509 7.52798 122.529 7.1971C122.529 7.1971 129.978 6.8993 130.413 13.12L130.341 18.645L130.328 19.7054Z" fill="#005CA9"/>
<path d="M98.3369 38.9601V32.2555L99.8746 32.2438V33.2735C101.144 31.1722 104.529 31.845 104.6 34.0575V38.9952H103.063V34.584C102.889 32.4908 100.019 33.0952 99.8746 34.6307V38.96L98.3369 38.9601Z" fill="#005CA9"/>
<path d="M44.597 31.2186H46.5969C49.8075 31.4295 49.2896 37.6076 46.5969 37.2222H44.597V31.2186ZM42.5972 38.7542L47.3804 38.821C47.3804 38.821 50.838 38.7542 50.8213 33.9237C50.8213 33.9237 51.1387 29.5343 46.7791 29.5176H42.5972V38.7542Z" fill="#005CA9"/>
<path d="M89.9941 38.8232V29.4175H97.0937V31.2159L91.994 31.2494V33.3198H96.5937V34.8208H91.994V37.1161L97.0937 37.1496V38.8232H89.9941Z" fill="#005CA9"/>
<path d="M84.6455 39.5229C84.6455 39.5229 84.4116 41.3448 81.3215 41.4451C81.3215 41.4451 78.4319 41.6971 78.3317 39.2234H80.2024C80.2321 40.5898 82.9109 40.3657 82.9946 39.2556V37.7225C82.9946 37.7225 82.3237 38.6372 80.787 38.6037C80.787 38.6037 78.2481 38.5202 78.0978 35.1438C78.0406 35.1508 78.2457 31.7845 81.071 31.8845C81.071 31.8845 82.4267 31.801 82.9946 32.9877V32.019H84.6789L84.6455 39.5229ZM81.6222 33.2885C81.6222 33.2885 80.0688 33.2885 80.0688 35.3109C80.0688 35.3109 80.0187 37.2498 81.6723 37.2832C83.5478 37.0489 83.2002 33.1373 81.6222 33.2885H81.6222Z" fill="#005CA9"/>
<path d="M124.553 39.5708C124.553 39.5708 124.319 41.3927 121.229 41.493C121.229 41.493 118.34 41.7449 118.239 39.2712H120.11C120.14 40.6376 122.819 40.4135 122.902 39.3034V37.7703C122.902 37.7703 122.231 38.685 120.695 38.6516C120.695 38.6516 118.156 38.568 118.006 35.1917C117.948 35.1987 118.153 31.8324 120.979 31.9324C120.979 31.9324 122.334 31.8488 122.902 33.0355V32.0669H124.587L124.553 39.5708ZM121.53 33.3363C121.53 33.3363 119.976 33.3363 119.976 35.3588C119.976 35.3588 119.926 37.2977 121.58 37.3311C123.456 37.0968 123.108 33.1852 121.53 33.3363H121.53Z" fill="#005CA9"/>
<path d="M57.1963 32.1187H59.0162V38.8211H57.1963V32.1187Z" fill="#005CA9"/>
<path d="M57.1963 29.5278H59.0163V31.0646H57.1963V29.5278Z" fill="#005CA9"/>
<path d="M67.333 32.1353H69.1529V38.8377H67.333V32.1353Z" fill="#005CA9"/>
<path d="M67.333 29.5444H69.153V31.0812H67.333V29.5444Z" fill="#005CA9"/>
<path d="M62.1261 38.8232L59.7285 32.019H61.6773L63.1065 36.8343L64.6891 32.019H66.4253L64.134 38.8232H62.1261Z" fill="#005CA9"/>
<path d="M125.518 32.2525L127.439 32.1689L128.992 36.8657L130.446 32.1021L132.4 32.1188L129.41 39.9077C129.41 39.9077 129.026 41.2282 127.406 41.2114L126.119 41.2448V39.9077L127.339 39.8743C127.431 39.8803 128.232 39.9231 127.89 38.8714L125.518 32.2525Z" fill="#005CA9"/>
</g>
<line x1="175.5" y1="1" x2="175.5" y2="41" stroke="#C3D7E6"/>
<path d="M222.461 9.85156H219.531V8.16406H222.461C222.94 8.16406 223.328 8.08594 223.625 7.92969C223.927 7.76823 224.148 7.54948 224.289 7.27344C224.43 6.99219 224.5 6.67188 224.5 6.3125C224.5 5.96354 224.43 5.63802 224.289 5.33594C224.148 5.03385 223.927 4.78906 223.625 4.60156C223.328 4.41406 222.94 4.32031 222.461 4.32031H220.234V14H218.086V2.625H222.461C223.346 2.625 224.102 2.78385 224.727 3.10156C225.357 3.41406 225.836 3.84896 226.164 4.40625C226.497 4.95833 226.664 5.58854 226.664 6.29688C226.664 7.03125 226.497 7.66406 226.164 8.19531C225.836 8.72656 225.357 9.13542 224.727 9.42188C224.102 9.70833 223.346 9.85156 222.461 9.85156ZM227.719 9.85938V9.69531C227.719 9.07552 227.807 8.50521 227.984 7.98438C228.161 7.45833 228.419 7.0026 228.758 6.61719C229.096 6.23177 229.51 5.93229 230 5.71875C230.49 5.5 231.047 5.39062 231.672 5.39062C232.307 5.39062 232.87 5.5 233.359 5.71875C233.854 5.93229 234.271 6.23177 234.609 6.61719C234.948 7.0026 235.206 7.45833 235.383 7.98438C235.56 8.50521 235.648 9.07552 235.648 9.69531V9.85938C235.648 10.474 235.56 11.0443 235.383 11.5703C235.206 12.0911 234.948 12.5469 234.609 12.9375C234.271 13.3229 233.857 13.6224 233.367 13.8359C232.878 14.0495 232.318 14.1562 231.688 14.1562C231.062 14.1562 230.503 14.0495 230.008 13.8359C229.513 13.6224 229.096 13.3229 228.758 12.9375C228.419 12.5469 228.161 12.0911 227.984 11.5703C227.807 11.0443 227.719 10.474 227.719 9.85938ZM229.781 9.69531V9.85938C229.781 10.2292 229.818 10.5755 229.891 10.8984C229.964 11.2214 230.076 11.5052 230.227 11.75C230.378 11.9948 230.573 12.1875 230.812 12.3281C231.057 12.4635 231.349 12.5312 231.688 12.5312C232.021 12.5312 232.307 12.4635 232.547 12.3281C232.786 12.1875 232.982 11.9948 233.133 11.75C233.289 11.5052 233.404 11.2214 233.477 10.8984C233.549 10.5755 233.586 10.2292 233.586 9.85938V9.69531C233.586 9.33073 233.549 8.98958 233.477 8.67188C233.404 8.34896 233.289 8.0651 233.133 7.82031C232.982 7.57031 232.784 7.375 232.539 7.23438C232.299 7.08854 232.01 7.01562 231.672 7.01562C231.339 7.01562 231.052 7.08854 230.812 7.23438C230.573 7.375 230.378 7.57031 230.227 7.82031C230.076 8.0651 229.964 8.34896 229.891 8.67188C229.818 8.98958 229.781 9.33073 229.781 9.69531ZM243.961 10.2578H246.109C246.052 11.0182 245.841 11.6927 245.477 12.2812C245.112 12.8646 244.604 13.3229 243.953 13.6562C243.302 13.9896 242.513 14.1562 241.586 14.1562C240.872 14.1562 240.229 14.0312 239.656 13.7812C239.089 13.526 238.602 13.1641 238.195 12.6953C237.794 12.2214 237.487 11.6536 237.273 10.9922C237.06 10.3255 236.953 9.57812 236.953 8.75V7.88281C236.953 7.05469 237.062 6.30729 237.281 5.64062C237.5 4.97396 237.812 4.40625 238.219 3.9375C238.63 3.46354 239.122 3.09896 239.695 2.84375C240.273 2.58854 240.919 2.46094 241.633 2.46094C242.56 2.46094 243.344 2.63281 243.984 2.97656C244.625 3.3151 245.122 3.78125 245.477 4.375C245.831 4.96875 246.044 5.65104 246.117 6.42188H243.969C243.927 5.94271 243.823 5.53646 243.656 5.20312C243.495 4.86979 243.25 4.61719 242.922 4.44531C242.599 4.26823 242.169 4.17969 241.633 4.17969C241.216 4.17969 240.849 4.25781 240.531 4.41406C240.219 4.57031 239.958 4.80469 239.75 5.11719C239.542 5.42448 239.385 5.8099 239.281 6.27344C239.177 6.73177 239.125 7.26302 239.125 7.86719V8.75C239.125 9.32812 239.172 9.84635 239.266 10.3047C239.359 10.763 239.505 11.151 239.703 11.4688C239.901 11.7865 240.156 12.0286 240.469 12.1953C240.781 12.362 241.154 12.4453 241.586 12.4453C242.112 12.4453 242.539 12.362 242.867 12.1953C243.201 12.0286 243.453 11.7839 243.625 11.4609C243.802 11.138 243.914 10.737 243.961 10.2578ZM252.695 2.625H254.555L257.664 11.1875L260.766 2.625H262.633L258.406 14H256.914L252.695 2.625ZM251.758 2.625H253.578L253.906 10.4922V14H251.758V2.625ZM261.742 2.625H263.57V14H261.422V10.4922L261.742 2.625ZM269.398 14.1562C268.758 14.1562 268.182 14.0521 267.672 13.8438C267.161 13.6354 266.727 13.3464 266.367 12.9766C266.013 12.6016 265.74 12.1667 265.547 11.6719C265.359 11.1719 265.266 10.6354 265.266 10.0625V9.75C265.266 9.09896 265.359 8.50781 265.547 7.97656C265.734 7.4401 266 6.97917 266.344 6.59375C266.688 6.20833 267.099 5.91146 267.578 5.70312C268.057 5.49479 268.586 5.39062 269.164 5.39062C269.763 5.39062 270.292 5.49219 270.75 5.69531C271.208 5.89323 271.591 6.17448 271.898 6.53906C272.206 6.90365 272.438 7.34115 272.594 7.85156C272.75 8.35677 272.828 8.91667 272.828 9.53125V10.3984H266.203V8.97656H270.797V8.82031C270.786 8.49219 270.724 8.19271 270.609 7.92188C270.495 7.64583 270.318 7.42708 270.078 7.26562C269.839 7.09896 269.529 7.01562 269.148 7.01562C268.841 7.01562 268.573 7.08333 268.344 7.21875C268.12 7.34896 267.932 7.53646 267.781 7.78125C267.635 8.02083 267.526 8.30729 267.453 8.64062C267.38 8.97396 267.344 9.34375 267.344 9.75V10.0625C267.344 10.4167 267.391 10.7448 267.484 11.0469C267.583 11.349 267.727 11.612 267.914 11.8359C268.107 12.0547 268.336 12.2266 268.602 12.3516C268.872 12.4714 269.18 12.5312 269.523 12.5312C269.956 12.5312 270.346 12.4479 270.695 12.2812C271.049 12.1094 271.357 11.8568 271.617 11.5234L272.656 12.6016C272.479 12.862 272.24 13.112 271.938 13.3516C271.641 13.5911 271.281 13.7865 270.859 13.9375C270.438 14.0833 269.951 14.1562 269.398 14.1562ZM278.211 5.54688V7.03125H273.367V5.54688H278.211ZM274.664 3.46875H276.734V11.5625C276.734 11.8125 276.768 12.0052 276.836 12.1406C276.904 12.276 277.005 12.3672 277.141 12.4141C277.276 12.4609 277.438 12.4844 277.625 12.4844C277.76 12.4844 277.885 12.4766 278 12.4609C278.115 12.4453 278.211 12.4297 278.289 12.4141L278.297 13.9609C278.125 14.0182 277.93 14.0651 277.711 14.1016C277.497 14.138 277.255 14.1562 276.984 14.1562C276.521 14.1562 276.115 14.0781 275.766 13.9219C275.417 13.7604 275.146 13.5026 274.953 13.1484C274.76 12.7891 274.664 12.3151 274.664 11.7266V3.46875ZM283.383 14.1562C282.742 14.1562 282.167 14.0521 281.656 13.8438C281.146 13.6354 280.711 13.3464 280.352 12.9766C279.997 12.6016 279.724 12.1667 279.531 11.6719C279.344 11.1719 279.25 10.6354 279.25 10.0625V9.75C279.25 9.09896 279.344 8.50781 279.531 7.97656C279.719 7.4401 279.984 6.97917 280.328 6.59375C280.672 6.20833 281.083 5.91146 281.562 5.70312C282.042 5.49479 282.57 5.39062 283.148 5.39062C283.747 5.39062 284.276 5.49219 284.734 5.69531C285.193 5.89323 285.576 6.17448 285.883 6.53906C286.19 6.90365 286.422 7.34115 286.578 7.85156C286.734 8.35677 286.812 8.91667 286.812 9.53125V10.3984H280.188V8.97656H284.781V8.82031C284.771 8.49219 284.708 8.19271 284.594 7.92188C284.479 7.64583 284.302 7.42708 284.062 7.26562C283.823 7.09896 283.513 7.01562 283.133 7.01562C282.826 7.01562 282.557 7.08333 282.328 7.21875C282.104 7.34896 281.917 7.53646 281.766 7.78125C281.62 8.02083 281.51 8.30729 281.438 8.64062C281.365 8.97396 281.328 9.34375 281.328 9.75V10.0625C281.328 10.4167 281.375 10.7448 281.469 11.0469C281.568 11.349 281.711 11.612 281.898 11.8359C282.091 12.0547 282.32 12.2266 282.586 12.3516C282.857 12.4714 283.164 12.5312 283.508 12.5312C283.94 12.5312 284.331 12.4479 284.68 12.2812C285.034 12.1094 285.341 11.8568 285.602 11.5234L286.641 12.6016C286.464 12.862 286.224 13.112 285.922 13.3516C285.625 13.5911 285.266 13.7865 284.844 13.9375C284.422 14.0833 283.935 14.1562 283.383 14.1562ZM290.258 7.27344V14H288.195V5.54688H290.148L290.258 7.27344ZM292.828 5.49219L292.797 7.41406C292.682 7.39323 292.552 7.3776 292.406 7.36719C292.266 7.35677 292.133 7.35156 292.008 7.35156C291.69 7.35156 291.411 7.39583 291.172 7.48438C290.932 7.56771 290.732 7.6901 290.57 7.85156C290.414 8.01302 290.294 8.21094 290.211 8.44531C290.128 8.67448 290.081 8.9349 290.07 9.22656L289.625 9.17188C289.625 8.63542 289.68 8.13802 289.789 7.67969C289.898 7.22135 290.057 6.82031 290.266 6.47656C290.474 6.13281 290.734 5.86719 291.047 5.67969C291.365 5.48698 291.729 5.39062 292.141 5.39062C292.255 5.39062 292.378 5.40104 292.508 5.42188C292.643 5.4375 292.75 5.46094 292.828 5.49219ZM219.023 26.625H220.883L223.992 35.1875L227.094 26.625H228.961L224.734 38H223.242L219.023 26.625ZM218.086 26.625H219.906L220.234 34.4922V38H218.086V26.625ZM228.07 26.625H229.898V38H227.75V34.4922L228.07 26.625ZM236.586 36.2031V32.3047C236.586 32.0182 236.536 31.7708 236.438 31.5625C236.339 31.3542 236.188 31.1927 235.984 31.0781C235.781 30.9635 235.523 30.9062 235.211 30.9062C234.935 30.9062 234.693 30.9531 234.484 31.0469C234.281 31.1406 234.125 31.2734 234.016 31.4453C233.906 31.612 233.852 31.8047 233.852 32.0234H231.781C231.781 31.6745 231.865 31.3438 232.031 31.0312C232.198 30.7135 232.435 30.4323 232.742 30.1875C233.055 29.9375 233.427 29.7422 233.859 29.6016C234.297 29.4609 234.786 29.3906 235.328 29.3906C235.969 29.3906 236.539 29.5 237.039 29.7188C237.544 29.9323 237.94 30.2552 238.227 30.6875C238.518 31.1198 238.664 31.6641 238.664 32.3203V36.0078C238.664 36.4297 238.69 36.7917 238.742 37.0938C238.799 37.3906 238.883 37.6484 238.992 37.8672V38H236.891C236.792 37.7865 236.716 37.5156 236.664 37.1875C236.612 36.8542 236.586 36.526 236.586 36.2031ZM236.875 32.8516L236.891 34.0781H235.586C235.263 34.0781 234.979 34.112 234.734 34.1797C234.49 34.2422 234.289 34.3359 234.133 34.4609C233.977 34.5807 233.859 34.7266 233.781 34.8984C233.703 35.0651 233.664 35.2552 233.664 35.4688C233.664 35.6771 233.711 35.8646 233.805 36.0312C233.904 36.1979 234.044 36.3307 234.227 36.4297C234.414 36.5234 234.633 36.5703 234.883 36.5703C235.247 36.5703 235.565 36.4974 235.836 36.3516C236.107 36.2005 236.318 36.0182 236.469 35.8047C236.62 35.5911 236.701 35.388 236.711 35.1953L237.305 36.0859C237.232 36.2995 237.122 36.526 236.977 36.7656C236.831 37.0052 236.643 37.2292 236.414 37.4375C236.185 37.6458 235.909 37.8177 235.586 37.9531C235.263 38.0885 234.888 38.1562 234.461 38.1562C233.914 38.1562 233.424 38.0469 232.992 37.8281C232.56 37.6094 232.219 37.3099 231.969 36.9297C231.719 36.5495 231.594 36.1172 231.594 35.6328C231.594 35.1849 231.677 34.7891 231.844 34.4453C232.01 34.1016 232.258 33.8125 232.586 33.5781C232.914 33.3385 233.32 33.1589 233.805 33.0391C234.294 32.9141 234.854 32.8516 235.484 32.8516H236.875ZM242.547 31.3516V38H240.484V29.5469H242.422L242.547 31.3516ZM242.219 33.4688H241.609C241.615 32.8542 241.698 32.2969 241.859 31.7969C242.021 31.2969 242.247 30.8672 242.539 30.5078C242.836 30.1484 243.188 29.8724 243.594 29.6797C244 29.487 244.453 29.3906 244.953 29.3906C245.359 29.3906 245.727 29.4479 246.055 29.5625C246.383 29.6771 246.664 29.8594 246.898 30.1094C247.138 30.3594 247.32 30.6875 247.445 31.0938C247.576 31.4948 247.641 31.9896 247.641 32.5781V38H245.562V32.5625C245.562 32.1771 245.505 31.8724 245.391 31.6484C245.281 31.4245 245.12 31.2656 244.906 31.1719C244.698 31.0781 244.44 31.0312 244.133 31.0312C243.815 31.0312 243.536 31.0964 243.297 31.2266C243.062 31.3516 242.865 31.526 242.703 31.75C242.547 31.974 242.427 32.2318 242.344 32.5234C242.26 32.8151 242.219 33.1302 242.219 33.4688ZM254.117 36.2031V32.3047C254.117 32.0182 254.068 31.7708 253.969 31.5625C253.87 31.3542 253.719 31.1927 253.516 31.0781C253.312 30.9635 253.055 30.9062 252.742 30.9062C252.466 30.9062 252.224 30.9531 252.016 31.0469C251.812 31.1406 251.656 31.2734 251.547 31.4453C251.438 31.612 251.383 31.8047 251.383 32.0234H249.312C249.312 31.6745 249.396 31.3438 249.562 31.0312C249.729 30.7135 249.966 30.4323 250.273 30.1875C250.586 29.9375 250.958 29.7422 251.391 29.6016C251.828 29.4609 252.318 29.3906 252.859 29.3906C253.5 29.3906 254.07 29.5 254.57 29.7188C255.076 29.9323 255.471 30.2552 255.758 30.6875C256.049 31.1198 256.195 31.6641 256.195 32.3203V36.0078C256.195 36.4297 256.221 36.7917 256.273 37.0938C256.331 37.3906 256.414 37.6484 256.523 37.8672V38H254.422C254.323 37.7865 254.247 37.5156 254.195 37.1875C254.143 36.8542 254.117 36.526 254.117 36.2031ZM254.406 32.8516L254.422 34.0781H253.117C252.794 34.0781 252.51 34.112 252.266 34.1797C252.021 34.2422 251.82 34.3359 251.664 34.4609C251.508 34.5807 251.391 34.7266 251.312 34.8984C251.234 35.0651 251.195 35.2552 251.195 35.4688C251.195 35.6771 251.242 35.8646 251.336 36.0312C251.435 36.1979 251.576 36.3307 251.758 36.4297C251.945 36.5234 252.164 36.5703 252.414 36.5703C252.779 36.5703 253.096 36.4974 253.367 36.3516C253.638 36.2005 253.849 36.0182 254 35.8047C254.151 35.5911 254.232 35.388 254.242 35.1953L254.836 36.0859C254.763 36.2995 254.654 36.526 254.508 36.7656C254.362 37.0052 254.174 37.2292 253.945 37.4375C253.716 37.6458 253.44 37.8177 253.117 37.9531C252.794 38.0885 252.419 38.1562 251.992 38.1562C251.445 38.1562 250.956 38.0469 250.523 37.8281C250.091 37.6094 249.75 37.3099 249.5 36.9297C249.25 36.5495 249.125 36.1172 249.125 35.6328C249.125 35.1849 249.208 34.7891 249.375 34.4453C249.542 34.1016 249.789 33.8125 250.117 33.5781C250.445 33.3385 250.852 33.1589 251.336 33.0391C251.826 32.9141 252.385 32.8516 253.016 32.8516H254.406ZM263.43 29.5469H265.305V37.7422C265.305 38.5078 265.138 39.1562 264.805 39.6875C264.477 40.224 264.016 40.6302 263.422 40.9062C262.828 41.1875 262.138 41.3281 261.352 41.3281C261.013 41.3281 260.646 41.2812 260.25 41.1875C259.859 41.0938 259.482 40.9453 259.117 40.7422C258.758 40.5443 258.458 40.2865 258.219 39.9688L259.148 38.75C259.43 39.0781 259.747 39.3255 260.102 39.4922C260.456 39.6641 260.839 39.75 261.25 39.75C261.667 39.75 262.021 39.6719 262.312 39.5156C262.609 39.3646 262.836 39.1406 262.992 38.8438C263.154 38.5521 263.234 38.1927 263.234 37.7656V31.4766L263.43 29.5469ZM257.719 33.875V33.7109C257.719 33.0651 257.797 32.4792 257.953 31.9531C258.109 31.4219 258.333 30.9661 258.625 30.5859C258.922 30.2057 259.279 29.9115 259.695 29.7031C260.117 29.4948 260.591 29.3906 261.117 29.3906C261.674 29.3906 262.143 29.4922 262.523 29.6953C262.909 29.8984 263.227 30.1875 263.477 30.5625C263.732 30.9375 263.93 31.3828 264.07 31.8984C264.216 32.4089 264.328 32.9714 264.406 33.5859V34.0312C264.333 34.6302 264.216 35.1797 264.055 35.6797C263.898 36.1797 263.69 36.6172 263.43 36.9922C263.169 37.362 262.846 37.6484 262.461 37.8516C262.076 38.0547 261.622 38.1562 261.102 38.1562C260.581 38.1562 260.112 38.0495 259.695 37.8359C259.279 37.6224 258.922 37.3229 258.625 36.9375C258.333 36.5521 258.109 36.099 257.953 35.5781C257.797 35.0573 257.719 34.4896 257.719 33.875ZM259.781 33.7109V33.875C259.781 34.2396 259.818 34.5807 259.891 34.8984C259.964 35.2161 260.076 35.4974 260.227 35.7422C260.378 35.9818 260.568 36.1693 260.797 36.3047C261.026 36.4401 261.299 36.5078 261.617 36.5078C262.044 36.5078 262.393 36.4193 262.664 36.2422C262.94 36.0599 263.148 35.8125 263.289 35.5C263.435 35.1823 263.529 34.8255 263.57 34.4297V33.2031C263.544 32.8906 263.487 32.6016 263.398 32.3359C263.315 32.0703 263.198 31.8411 263.047 31.6484C262.896 31.4557 262.703 31.3047 262.469 31.1953C262.234 31.0859 261.956 31.0312 261.633 31.0312C261.32 31.0312 261.047 31.1016 260.812 31.2422C260.578 31.3776 260.385 31.5677 260.234 31.8125C260.083 32.0573 259.969 32.3411 259.891 32.6641C259.818 32.987 259.781 33.3359 259.781 33.7109ZM270.961 38.1562C270.32 38.1562 269.745 38.0521 269.234 37.8438C268.724 37.6354 268.289 37.3464 267.93 36.9766C267.576 36.6016 267.302 36.1667 267.109 35.6719C266.922 35.1719 266.828 34.6354 266.828 34.0625V33.75C266.828 33.099 266.922 32.5078 267.109 31.9766C267.297 31.4401 267.562 30.9792 267.906 30.5938C268.25 30.2083 268.661 29.9115 269.141 29.7031C269.62 29.4948 270.148 29.3906 270.727 29.3906C271.326 29.3906 271.854 29.4922 272.312 29.6953C272.771 29.8932 273.154 30.1745 273.461 30.5391C273.768 30.9036 274 31.3411 274.156 31.8516C274.312 32.3568 274.391 32.9167 274.391 33.5312V34.3984H267.766V32.9766H272.359V32.8203C272.349 32.4922 272.286 32.1927 272.172 31.9219C272.057 31.6458 271.88 31.4271 271.641 31.2656C271.401 31.099 271.091 31.0156 270.711 31.0156C270.404 31.0156 270.135 31.0833 269.906 31.2188C269.682 31.349 269.495 31.5365 269.344 31.7812C269.198 32.0208 269.089 32.3073 269.016 32.6406C268.943 32.974 268.906 33.3438 268.906 33.75V34.0625C268.906 34.4167 268.953 34.7448 269.047 35.0469C269.146 35.349 269.289 35.612 269.477 35.8359C269.669 36.0547 269.898 36.2266 270.164 36.3516C270.435 36.4714 270.742 36.5312 271.086 36.5312C271.518 36.5312 271.909 36.4479 272.258 36.2812C272.612 36.1094 272.919 35.8568 273.18 35.5234L274.219 36.6016C274.042 36.862 273.802 37.112 273.5 37.3516C273.203 37.5911 272.844 37.7865 272.422 37.9375C272 38.0833 271.513 38.1562 270.961 38.1562ZM277.828 31.2812V38H275.766V29.5469H277.711L277.828 31.2812ZM277.523 33.4688H276.891C276.891 32.8802 276.961 32.3385 277.102 31.8438C277.247 31.349 277.461 30.9193 277.742 30.5547C278.023 30.1849 278.37 29.8984 278.781 29.6953C279.198 29.4922 279.68 29.3906 280.227 29.3906C280.607 29.3906 280.956 29.4479 281.273 29.5625C281.591 29.6719 281.865 29.8464 282.094 30.0859C282.328 30.3203 282.508 30.6276 282.633 31.0078C282.758 31.3828 282.82 31.8333 282.82 32.3594V38H280.758V32.5703C280.758 32.1745 280.701 31.8646 280.586 31.6406C280.477 31.4167 280.318 31.2604 280.109 31.1719C279.901 31.0781 279.651 31.0312 279.359 31.0312C279.036 31.0312 278.758 31.0964 278.523 31.2266C278.294 31.3516 278.104 31.526 277.953 31.75C277.807 31.974 277.698 32.2318 277.625 32.5234C277.557 32.8151 277.523 33.1302 277.523 33.4688ZM282.664 33.0859L281.812 33.2422C281.818 32.7109 281.891 32.2135 282.031 31.75C282.172 31.2812 282.378 30.8724 282.648 30.5234C282.924 30.1693 283.266 29.8932 283.672 29.6953C284.083 29.4922 284.557 29.3906 285.094 29.3906C285.51 29.3906 285.885 29.4505 286.219 29.5703C286.557 29.6849 286.846 29.8698 287.086 30.125C287.326 30.375 287.508 30.7005 287.633 31.1016C287.763 31.5026 287.828 31.9922 287.828 32.5703V38H285.75V32.5625C285.75 32.151 285.693 31.8359 285.578 31.6172C285.469 31.3984 285.31 31.2474 285.102 31.1641C284.893 31.0755 284.648 31.0312 284.367 31.0312C284.081 31.0312 283.831 31.0859 283.617 31.1953C283.409 31.2995 283.232 31.4453 283.086 31.6328C282.945 31.8203 282.839 32.0391 282.766 32.2891C282.698 32.5339 282.664 32.7995 282.664 33.0859ZM293.477 38.1562C292.836 38.1562 292.26 38.0521 291.75 37.8438C291.24 37.6354 290.805 37.3464 290.445 36.9766C290.091 36.6016 289.818 36.1667 289.625 35.6719C289.438 35.1719 289.344 34.6354 289.344 34.0625V33.75C289.344 33.099 289.438 32.5078 289.625 31.9766C289.812 31.4401 290.078 30.9792 290.422 30.5938C290.766 30.2083 291.177 29.9115 291.656 29.7031C292.135 29.4948 292.664 29.3906 293.242 29.3906C293.841 29.3906 294.37 29.4922 294.828 29.6953C295.286 29.8932 295.669 30.1745 295.977 30.5391C296.284 30.9036 296.516 31.3411 296.672 31.8516C296.828 32.3568 296.906 32.9167 296.906 33.5312V34.3984H290.281V32.9766H294.875V32.8203C294.865 32.4922 294.802 32.1927 294.688 31.9219C294.573 31.6458 294.396 31.4271 294.156 31.2656C293.917 31.099 293.607 31.0156 293.227 31.0156C292.919 31.0156 292.651 31.0833 292.422 31.2188C292.198 31.349 292.01 31.5365 291.859 31.7812C291.714 32.0208 291.604 32.3073 291.531 32.6406C291.458 32.974 291.422 33.3438 291.422 33.75V34.0625C291.422 34.4167 291.469 34.7448 291.562 35.0469C291.661 35.349 291.805 35.612 291.992 35.8359C292.185 36.0547 292.414 36.2266 292.68 36.3516C292.951 36.4714 293.258 36.5312 293.602 36.5312C294.034 36.5312 294.424 36.4479 294.773 36.2812C295.128 36.1094 295.435 35.8568 295.695 35.5234L296.734 36.6016C296.557 36.862 296.318 37.112 296.016 37.3516C295.719 37.5911 295.359 37.7865 294.938 37.9375C294.516 38.0833 294.029 38.1562 293.477 38.1562ZM300.312 31.3516V38H298.25V29.5469H300.188L300.312 31.3516ZM299.984 33.4688H299.375C299.38 32.8542 299.464 32.2969 299.625 31.7969C299.786 31.2969 300.013 30.8672 300.305 30.5078C300.602 30.1484 300.953 29.8724 301.359 29.6797C301.766 29.487 302.219 29.3906 302.719 29.3906C303.125 29.3906 303.492 29.4479 303.82 29.5625C304.148 29.6771 304.43 29.8594 304.664 30.1094C304.904 30.3594 305.086 30.6875 305.211 31.0938C305.341 31.4948 305.406 31.9896 305.406 32.5781V38H303.328V32.5625C303.328 32.1771 303.271 31.8724 303.156 31.6484C303.047 31.4245 302.885 31.2656 302.672 31.1719C302.464 31.0781 302.206 31.0312 301.898 31.0312C301.581 31.0312 301.302 31.0964 301.062 31.2266C300.828 31.3516 300.63 31.526 300.469 31.75C300.312 31.974 300.193 32.2318 300.109 32.5234C300.026 32.8151 299.984 33.1302 299.984 33.4688ZM311.227 29.5469V31.0312H306.383V29.5469H311.227ZM307.68 27.4688H309.75V35.5625C309.75 35.8125 309.784 36.0052 309.852 36.1406C309.919 36.276 310.021 36.3672 310.156 36.4141C310.292 36.4609 310.453 36.4844 310.641 36.4844C310.776 36.4844 310.901 36.4766 311.016 36.4609C311.13 36.4453 311.227 36.4297 311.305 36.4141L311.312 37.9609C311.141 38.0182 310.945 38.0651 310.727 38.1016C310.513 38.138 310.271 38.1562 310 38.1562C309.536 38.1562 309.13 38.0781 308.781 37.9219C308.432 37.7604 308.161 37.5026 307.969 37.1484C307.776 36.7891 307.68 36.3151 307.68 35.7266V27.4688Z" fill="black"/>
<defs>
<clipPath id="clip0_7785_14848">
<rect width="133" height="41" fill="white" transform="translate(0 0.5)"/>
</clipPath>
</defs>
</svg>
