<svg width="205" height="42" viewBox="0 0 205 42" fill="none" xmlns="http://www.w3.org/2000/svg">
<path d="M18.1329 31.6667H13.8662" stroke="#005CA9" stroke-width="1.5" stroke-linecap="round" stroke-linejoin="round"/>
<path fill-rule="evenodd" clip-rule="evenodd" d="M22.667 18.3758V18.3332V18.3332C22.667 14.6518 19.6817 11.6665 16.0003 11.6665V11.6665C12.319 11.6665 9.33366 14.6518 9.33366 18.3332V18.3332V18.3758V21.6718C9.33366 22.1038 9.08966 22.4972 8.70433 22.6905L8.03366 23.0252C7.19633 23.4452 6.66699 24.3012 6.66699 25.2372V25.2372C6.66699 26.6025 7.77366 27.7092 9.13899 27.7092H22.8617C24.227 27.7092 25.3337 26.6025 25.3337 25.2372V25.2372C25.3337 24.3012 24.8043 23.4452 23.967 23.0265L23.2963 22.6918C22.911 22.4972 22.667 22.1038 22.667 21.6718V18.3758Z" stroke="#005CA9" stroke-width="1.5" stroke-linecap="round" stroke-linejoin="round"/>
<circle cx="14" cy="12" r="4" fill="#C85804"/>
<line x1="54.5" y1="1" x2="54.5" y2="41" stroke="#C3D7E6"/>
<rect x="84.5" y="6.5" width="29" height="29" rx="14.5" stroke="#005CA9"/>
<path fill-rule="evenodd" clip-rule="evenodd" d="M99 22C101.209 22 103 20.2091 103 18V15C103 12.7909 101.209 11 99 11C96.7909 11 95 12.7909 95 15V18C95 20.2091 96.7909 22 99 22ZM96 15C96 13.3431 97.3431 12 99 12C100.657 12 102 13.3431 102 15V18C102 19.6569 100.657 21 99 21C97.3431 21 96 19.6569 96 18V15ZM106 31H107C107 26.5817 103.418 23 99 23C94.5817 23 91 26.5817 91 31H92C92 27.134 95.134 24 99 24C102.866 24 106 27.134 106 31Z" fill="url(#paint0_linear_7785_14886)"/>
<path d="M123.771 15.5469H125.397L128.118 23.0391L130.832 15.5469H132.466L128.768 25.5H127.462L123.771 15.5469ZM122.95 15.5469H124.543L124.83 22.4307V25.5H122.95V15.5469ZM131.687 15.5469H133.286V25.5H131.406V22.4307L131.687 15.5469ZM139.138 23.9277V20.5166C139.138 20.266 139.094 20.0495 139.008 19.8672C138.921 19.6849 138.789 19.5436 138.611 19.4434C138.434 19.3431 138.208 19.293 137.935 19.293C137.693 19.293 137.481 19.334 137.299 19.416C137.121 19.498 136.984 19.6143 136.889 19.7646C136.793 19.9105 136.745 20.0791 136.745 20.2705H134.934C134.934 19.9652 135.007 19.6758 135.152 19.4023C135.298 19.1243 135.506 18.8783 135.774 18.6641C136.048 18.4453 136.374 18.2744 136.752 18.1514C137.135 18.0283 137.563 17.9668 138.037 17.9668C138.598 17.9668 139.097 18.0625 139.534 18.2539C139.976 18.4408 140.323 18.7233 140.573 19.1016C140.828 19.4798 140.956 19.9561 140.956 20.5303V23.7568C140.956 24.126 140.979 24.4427 141.024 24.707C141.075 24.9668 141.147 25.1924 141.243 25.3838V25.5H139.404C139.318 25.3132 139.252 25.0762 139.206 24.7891C139.16 24.4974 139.138 24.2103 139.138 23.9277ZM139.391 20.9951L139.404 22.0684H138.263C137.98 22.0684 137.732 22.098 137.518 22.1572C137.303 22.2119 137.128 22.2939 136.991 22.4033C136.854 22.5081 136.752 22.6357 136.684 22.7861C136.615 22.932 136.581 23.0983 136.581 23.2852C136.581 23.4674 136.622 23.6315 136.704 23.7773C136.791 23.9232 136.914 24.0394 137.073 24.126C137.237 24.208 137.429 24.249 137.647 24.249C137.966 24.249 138.244 24.1852 138.481 24.0576C138.718 23.9255 138.903 23.766 139.035 23.5791C139.167 23.3923 139.238 23.2145 139.247 23.0459L139.767 23.8252C139.703 24.012 139.607 24.2103 139.479 24.4199C139.352 24.6296 139.188 24.8255 138.987 25.0078C138.787 25.1901 138.545 25.3405 138.263 25.459C137.98 25.5775 137.652 25.6367 137.278 25.6367C136.8 25.6367 136.371 25.541 135.993 25.3496C135.615 25.1582 135.316 24.8962 135.098 24.5635C134.879 24.2308 134.77 23.8525 134.77 23.4287C134.77 23.0368 134.842 22.6904 134.988 22.3896C135.134 22.0889 135.351 21.8359 135.638 21.6309C135.925 21.4212 136.28 21.264 136.704 21.1592C137.132 21.0498 137.622 20.9951 138.174 20.9951H139.391ZM144.388 19.6143V25.5H142.583V18.1035H144.292L144.388 19.6143ZM146.637 18.0557L146.609 19.7373C146.509 19.7191 146.395 19.7054 146.268 19.6963C146.145 19.6872 146.028 19.6826 145.919 19.6826C145.641 19.6826 145.397 19.7214 145.188 19.7988C144.978 19.8717 144.802 19.9788 144.661 20.1201C144.524 20.2614 144.42 20.4346 144.347 20.6396C144.274 20.8402 144.233 21.068 144.224 21.3232L143.834 21.2754C143.834 20.806 143.882 20.3708 143.978 19.9697C144.073 19.5687 144.212 19.2178 144.395 18.917C144.577 18.6162 144.805 18.3838 145.078 18.2197C145.356 18.0511 145.675 17.9668 146.035 17.9668C146.135 17.9668 146.243 17.9759 146.356 17.9941C146.475 18.0078 146.568 18.0283 146.637 18.0557ZM149.542 18.1035V25.5H147.73V18.1035H149.542ZM147.607 16.1689C147.607 15.9001 147.699 15.6768 147.881 15.499C148.068 15.3213 148.318 15.2324 148.633 15.2324C148.947 15.2324 149.196 15.3213 149.378 15.499C149.565 15.6768 149.658 15.9001 149.658 16.1689C149.658 16.4333 149.565 16.6543 149.378 16.832C149.196 17.0098 148.947 17.0986 148.633 17.0986C148.318 17.0986 148.068 17.0098 147.881 16.832C147.699 16.6543 147.607 16.4333 147.607 16.1689ZM150.943 21.877V21.7334C150.943 21.1911 151.021 20.6921 151.176 20.2363C151.331 19.776 151.556 19.3773 151.853 19.04C152.149 18.7028 152.511 18.4408 152.939 18.2539C153.368 18.0625 153.855 17.9668 154.402 17.9668C154.958 17.9668 155.451 18.0625 155.879 18.2539C156.312 18.4408 156.676 18.7028 156.973 19.04C157.269 19.3773 157.494 19.776 157.649 20.2363C157.804 20.6921 157.882 21.1911 157.882 21.7334V21.877C157.882 22.4147 157.804 22.9137 157.649 23.374C157.494 23.8298 157.269 24.2285 156.973 24.5703C156.676 24.9076 156.314 25.1696 155.886 25.3564C155.457 25.5433 154.967 25.6367 154.416 25.6367C153.869 25.6367 153.379 25.5433 152.946 25.3564C152.513 25.1696 152.149 24.9076 151.853 24.5703C151.556 24.2285 151.331 23.8298 151.176 23.374C151.021 22.9137 150.943 22.4147 150.943 21.877ZM152.748 21.7334V21.877C152.748 22.2005 152.78 22.5036 152.844 22.7861C152.908 23.0687 153.006 23.3171 153.138 23.5312C153.27 23.7454 153.441 23.9141 153.65 24.0371C153.865 24.1556 154.12 24.2148 154.416 24.2148C154.708 24.2148 154.958 24.1556 155.168 24.0371C155.378 23.9141 155.549 23.7454 155.681 23.5312C155.817 23.3171 155.918 23.0687 155.981 22.7861C156.045 22.5036 156.077 22.2005 156.077 21.877V21.7334C156.077 21.4144 156.045 21.1159 155.981 20.8379C155.918 20.5553 155.817 20.307 155.681 20.0928C155.549 19.874 155.375 19.7031 155.161 19.5801C154.951 19.4525 154.699 19.3887 154.402 19.3887C154.111 19.3887 153.86 19.4525 153.65 19.5801C153.441 19.7031 153.27 19.874 153.138 20.0928C153.006 20.307 152.908 20.5553 152.844 20.8379C152.78 21.1159 152.748 21.4144 152.748 21.7334ZM162.817 15.5469H166.434C167.19 15.5469 167.84 15.6608 168.382 15.8887C168.924 16.1165 169.341 16.4538 169.633 16.9004C169.924 17.347 170.07 17.8962 170.07 18.5479C170.07 19.0628 169.979 19.5094 169.797 19.8877C169.615 20.266 169.357 20.5827 169.024 20.8379C168.696 21.0931 168.309 21.2936 167.862 21.4395L167.274 21.7402H164.082L164.068 20.2568H166.454C166.841 20.2568 167.163 20.1885 167.418 20.0518C167.673 19.915 167.865 19.7259 167.992 19.4844C168.124 19.2428 168.19 18.9671 168.19 18.6572C168.19 18.3245 168.127 18.0374 167.999 17.7959C167.871 17.5498 167.678 17.3607 167.418 17.2285C167.158 17.0964 166.83 17.0303 166.434 17.0303H164.697V25.5H162.817V15.5469ZM168.437 25.5L166.133 21.043L168.122 21.0361L170.453 25.4043V25.5H168.437ZM171.26 21.877V21.7334C171.26 21.1911 171.337 20.6921 171.492 20.2363C171.647 19.776 171.873 19.3773 172.169 19.04C172.465 18.7028 172.827 18.4408 173.256 18.2539C173.684 18.0625 174.172 17.9668 174.719 17.9668C175.275 17.9668 175.767 18.0625 176.195 18.2539C176.628 18.4408 176.993 18.7028 177.289 19.04C177.585 19.3773 177.811 19.776 177.966 20.2363C178.121 20.6921 178.198 21.1911 178.198 21.7334V21.877C178.198 22.4147 178.121 22.9137 177.966 23.374C177.811 23.8298 177.585 24.2285 177.289 24.5703C176.993 24.9076 176.631 25.1696 176.202 25.3564C175.774 25.5433 175.284 25.6367 174.732 25.6367C174.186 25.6367 173.696 25.5433 173.263 25.3564C172.83 25.1696 172.465 24.9076 172.169 24.5703C171.873 24.2285 171.647 23.8298 171.492 23.374C171.337 22.9137 171.26 22.4147 171.26 21.877ZM173.064 21.7334V21.877C173.064 22.2005 173.096 22.5036 173.16 22.7861C173.224 23.0687 173.322 23.3171 173.454 23.5312C173.586 23.7454 173.757 23.9141 173.967 24.0371C174.181 24.1556 174.436 24.2148 174.732 24.2148C175.024 24.2148 175.275 24.1556 175.484 24.0371C175.694 23.9141 175.865 23.7454 175.997 23.5312C176.134 23.3171 176.234 23.0687 176.298 22.7861C176.362 22.5036 176.394 22.2005 176.394 21.877V21.7334C176.394 21.4144 176.362 21.1159 176.298 20.8379C176.234 20.5553 176.134 20.307 175.997 20.0928C175.865 19.874 175.692 19.7031 175.478 19.5801C175.268 19.4525 175.015 19.3887 174.719 19.3887C174.427 19.3887 174.176 19.4525 173.967 19.5801C173.757 19.7031 173.586 19.874 173.454 20.0928C173.322 20.307 173.224 20.5553 173.16 20.8379C173.096 21.1159 173.064 21.4144 173.064 21.7334ZM183.578 23.4766C183.578 23.3216 183.537 23.1826 183.455 23.0596C183.373 22.9365 183.218 22.8249 182.99 22.7246C182.767 22.6198 182.439 22.5218 182.006 22.4307C181.623 22.3486 181.27 22.2461 180.946 22.123C180.623 22 180.345 21.8519 180.112 21.6787C179.88 21.501 179.698 21.2936 179.565 21.0566C179.438 20.8151 179.374 20.5371 179.374 20.2227C179.374 19.9173 179.44 19.6302 179.572 19.3613C179.704 19.0879 179.896 18.8486 180.146 18.6436C180.397 18.4339 180.702 18.2699 181.062 18.1514C181.423 18.0283 181.828 17.9668 182.279 17.9668C182.908 17.9668 183.448 18.0693 183.899 18.2744C184.355 18.4795 184.704 18.762 184.945 19.1221C185.187 19.4775 185.308 19.8786 185.308 20.3252H183.503C183.503 20.1292 183.457 19.9515 183.366 19.792C183.28 19.6325 183.145 19.5049 182.963 19.4092C182.781 19.3089 182.55 19.2588 182.272 19.2588C182.022 19.2588 181.81 19.2998 181.637 19.3818C181.468 19.4639 181.34 19.571 181.254 19.7031C181.167 19.8353 181.124 19.9811 181.124 20.1406C181.124 20.2591 181.147 20.3662 181.192 20.4619C181.243 20.5531 181.322 20.6374 181.432 20.7148C181.541 20.7923 181.689 20.863 181.876 20.9268C182.067 20.9906 182.302 21.0521 182.58 21.1113C183.132 21.2207 183.612 21.3665 184.022 21.5488C184.437 21.7266 184.761 21.9635 184.993 22.2598C185.226 22.556 185.342 22.9342 185.342 23.3945C185.342 23.7227 185.271 24.0234 185.13 24.2969C184.989 24.5658 184.784 24.8005 184.515 25.001C184.246 25.2015 183.924 25.3587 183.551 25.4727C183.177 25.582 182.756 25.6367 182.286 25.6367C181.607 25.6367 181.033 25.516 180.563 25.2744C180.094 25.0283 179.739 24.7184 179.497 24.3447C179.256 23.9665 179.135 23.5745 179.135 23.1689H180.864C180.878 23.4561 180.955 23.6862 181.097 23.8594C181.238 24.0326 181.416 24.1579 181.63 24.2354C181.849 24.3083 182.079 24.3447 182.32 24.3447C182.594 24.3447 182.824 24.3083 183.011 24.2354C183.198 24.1579 183.339 24.0553 183.435 23.9277C183.53 23.7956 183.578 23.6452 183.578 23.4766ZM190.783 23.4766C190.783 23.3216 190.742 23.1826 190.66 23.0596C190.578 22.9365 190.423 22.8249 190.195 22.7246C189.972 22.6198 189.644 22.5218 189.211 22.4307C188.828 22.3486 188.475 22.2461 188.151 22.123C187.828 22 187.55 21.8519 187.317 21.6787C187.085 21.501 186.903 21.2936 186.771 21.0566C186.643 20.8151 186.579 20.5371 186.579 20.2227C186.579 19.9173 186.645 19.6302 186.777 19.3613C186.91 19.0879 187.101 18.8486 187.352 18.6436C187.602 18.4339 187.908 18.2699 188.268 18.1514C188.628 18.0283 189.033 17.9668 189.484 17.9668C190.113 17.9668 190.653 18.0693 191.104 18.2744C191.56 18.4795 191.909 18.762 192.15 19.1221C192.392 19.4775 192.513 19.8786 192.513 20.3252H190.708C190.708 20.1292 190.662 19.9515 190.571 19.792C190.485 19.6325 190.35 19.5049 190.168 19.4092C189.986 19.3089 189.756 19.2588 189.478 19.2588C189.227 19.2588 189.015 19.2998 188.842 19.3818C188.673 19.4639 188.546 19.571 188.459 19.7031C188.372 19.8353 188.329 19.9811 188.329 20.1406C188.329 20.2591 188.352 20.3662 188.397 20.4619C188.448 20.5531 188.527 20.6374 188.637 20.7148C188.746 20.7923 188.894 20.863 189.081 20.9268C189.272 20.9906 189.507 21.0521 189.785 21.1113C190.337 21.2207 190.817 21.3665 191.228 21.5488C191.642 21.7266 191.966 21.9635 192.198 22.2598C192.431 22.556 192.547 22.9342 192.547 23.3945C192.547 23.7227 192.476 24.0234 192.335 24.2969C192.194 24.5658 191.989 24.8005 191.72 25.001C191.451 25.2015 191.13 25.3587 190.756 25.4727C190.382 25.582 189.961 25.6367 189.491 25.6367C188.812 25.6367 188.238 25.516 187.769 25.2744C187.299 25.0283 186.944 24.7184 186.702 24.3447C186.461 23.9665 186.34 23.5745 186.34 23.1689H188.069C188.083 23.4561 188.16 23.6862 188.302 23.8594C188.443 24.0326 188.621 24.1579 188.835 24.2354C189.054 24.3083 189.284 24.3447 189.525 24.3447C189.799 24.3447 190.029 24.3083 190.216 24.2354C190.403 24.1579 190.544 24.0553 190.64 23.9277C190.735 23.7956 190.783 23.6452 190.783 23.4766ZM195.835 18.1035V25.5H194.023V18.1035H195.835ZM193.9 16.1689C193.9 15.9001 193.992 15.6768 194.174 15.499C194.361 15.3213 194.611 15.2324 194.926 15.2324C195.24 15.2324 195.489 15.3213 195.671 15.499C195.858 15.6768 195.951 15.9001 195.951 16.1689C195.951 16.4333 195.858 16.6543 195.671 16.832C195.489 17.0098 195.24 17.0986 194.926 17.0986C194.611 17.0986 194.361 17.0098 194.174 16.832C193.992 16.6543 193.9 16.4333 193.9 16.1689Z" fill="url(#paint1_linear_7785_14886)"/>
<defs>
<linearGradient id="paint0_linear_7785_14886" x1="107" y1="21" x2="91" y2="21" gradientUnits="userSpaceOnUse">
<stop stop-color="#005CA9"/>
<stop offset="1" stop-color="#152F5D"/>
</linearGradient>
<linearGradient id="paint1_linear_7785_14886" x1="197" y1="21" x2="122" y2="21" gradientUnits="userSpaceOnUse">
<stop stop-color="#005CA9"/>
<stop offset="1" stop-color="#152F5D"/>
</linearGradient>
</defs>
</svg>
