<svg width="17" height="17" viewBox="0 0 17 17" fill="none" xmlns="http://www.w3.org/2000/svg">
    <path d="M15 0.799805C15.28 0.799805 15.5 1.0198 15.5 1.2998V1.7998H16C16.1326 1.7998 16.2598 1.85248 16.3536 1.94625C16.4473 2.04002 16.5 2.1672 16.5 2.2998C16.5 2.43241 16.4473 2.55959 16.3536 2.65336C16.2598 2.74713 16.1326 2.7998 16 2.7998H15.5V3.2998C15.5 3.43241 15.4473 3.55959 15.3536 3.65336C15.2598 3.74713 15.1326 3.7998 15 3.7998C14.8674 3.7998 14.7402 3.74713 14.6464 3.65336C14.5527 3.55959 14.5 3.43241 14.5 3.2998V2.7998H14C13.8674 2.7998 13.7402 2.74713 13.6464 2.65336C13.5527 2.55959 13.5 2.43241 13.5 2.2998C13.5 2.1672 13.5527 2.04002 13.6464 1.94625C13.7402 1.85248 13.8674 1.7998 14 1.7998H14.5V1.2998C14.5 1.0198 14.72 0.799805 15 0.799805ZM2 13.7998C2.28 13.7998 2.5 14.0198 2.5 14.2998V14.7998H3C3.13261 14.7998 3.25979 14.8525 3.35355 14.9463C3.44732 15.04 3.5 15.1672 3.5 15.2998C3.5 15.4324 3.44732 15.5596 3.35355 15.6534C3.25979 15.7471 3.13261 15.7998 3 15.7998H2.5V16.2998C2.5 16.4324 2.44732 16.5596 2.35355 16.6534C2.25979 16.7471 2.13261 16.7998 2 16.7998C1.86739 16.7998 1.74021 16.7471 1.64645 16.6534C1.55268 16.5596 1.5 16.4324 1.5 16.2998V15.7998H1C0.867392 15.7998 0.740215 15.7471 0.646447 15.6534C0.552679 15.5596 0.5 15.4324 0.5 15.2998C0.5 15.1672 0.552679 15.04 0.646447 14.9463C0.740215 14.8525 0.867392 14.7998 1 14.7998H1.5V14.2998C1.5 14.0198 1.72 13.7998 2 13.7998ZM6 0.799805C5.35 0.799805 4.88 1.3098 4.76 1.8598C4.65 2.4098 4.36 3.2298 3.65 3.9498C2.93 4.6598 2.11 4.9498 1.56 5.0598C1.01 5.16981 0.5 5.6598 0.5 6.2998C0.5 6.9498 1.02 7.4298 1.56 7.5398C2.11 7.6498 2.93 7.93981 3.65 8.64981C4.36 9.36981 4.65 10.1898 4.76 10.7498C4.88 11.2898 5.35 11.7998 6 11.7998C6.65 11.7998 7.13 11.2898 7.24 10.7398C7.35 10.1898 7.64 9.36981 8.35 8.64981C9.07 7.93981 9.89 7.6498 10.45 7.5398C10.99 7.4298 11.5 6.9498 11.5 6.2998C11.5 5.6498 10.99 5.16981 10.44 5.0598C9.65017 4.90104 8.92383 4.51528 8.35 3.9498C7.64 3.2298 7.35 2.4098 7.24 1.8498C7.13 1.3198 6.65 0.799805 6 0.799805ZM5.5 13.7998V12.7398C5.82861 12.8192 6.17139 12.8192 6.5 12.7398V13.7998C6.5 14.8998 7.4 15.7998 8.5 15.7998H13.5C14.0304 15.7998 14.5391 15.5891 14.9142 15.214C15.2893 14.8389 15.5 14.3302 15.5 13.7998V8.7998C15.5 8.26937 15.2893 7.76066 14.9142 7.38559C14.5391 7.01052 14.0304 6.7998 13.5 6.7998H12.44C12.5194 6.47119 12.5194 6.12842 12.44 5.7998H13.5C14.2956 5.7998 15.0587 6.11588 15.6213 6.67848C16.1839 7.24109 16.5 8.00416 16.5 8.7998V13.7998C16.5 14.5955 16.1839 15.3585 15.6213 15.9211C15.0587 16.4837 14.2956 16.7998 13.5 16.7998H8.5C7.70435 16.7998 6.94129 16.4837 6.37868 15.9211C5.81607 15.3585 5.5 14.5955 5.5 13.7998ZM8.5 12.2998C8.5 12.0198 8.72 11.7998 9 11.7998H12C12.1326 11.7998 12.2598 11.8525 12.3536 11.9463C12.4473 12.04 12.5 12.1672 12.5 12.2998C12.5 12.4324 12.4473 12.5596 12.3536 12.6534C12.2598 12.7471 12.1326 12.7998 12 12.7998H9C8.86739 12.7998 8.74021 12.7471 8.64645 12.6534C8.55268 12.5596 8.5 12.4324 8.5 12.2998ZM9 9.7998C8.86739 9.7998 8.74021 9.85248 8.64645 9.94625C8.55268 10.04 8.5 10.1672 8.5 10.2998C8.5 10.4324 8.55268 10.5596 8.64645 10.6534C8.74021 10.7471 8.86739 10.7998 9 10.7998H13.5C13.6326 10.7998 13.7598 10.7471 13.8536 10.6534C13.9473 10.5596 14 10.4324 14 10.2998C14 10.1672 13.9473 10.04 13.8536 9.94625C13.7598 9.85248 13.6326 9.7998 13.5 9.7998H9Z" fill="black"/>
</svg>
