<svg width="23" height="26" viewBox="0 0 23 26" fill="none" xmlns="http://www.w3.org/2000/svg">
    <path d="M20.3334 22.7334C20.3334 23.3522 20.0876 23.9457 19.65 24.3833C19.2124 24.8209 18.6189 25.0667 18.0001 25.0667H4.00008C3.38124 25.0667 2.78775 24.8209 2.35017 24.3833C1.91258 23.9457 1.66675 23.3522 1.66675 22.7334V4.06673C1.66675 3.44789 1.91258 2.8544 2.35017 2.41682C2.78775 1.97923 3.38124 1.7334 4.00008 1.7334H13.3334L20.3334 8.7334" stroke="#005CA9" stroke-width="1.5" stroke-linecap="round" stroke-linejoin="round"/>
    <path d="M13.3335 1.7334V8.7334H20.3335" stroke="#005CA9" stroke-width="1.5" stroke-linecap="round" stroke-linejoin="round"/>
    <path d="M12.4367 17.8379L13.9702 17.8379C14.6486 17.8379 15.1985 17.288 15.1985 16.6096L15.1985 13.5414C15.1985 12.863 14.6486 12.3131 13.9702 12.3131L12.4367 12.3131" stroke="#005CA9" stroke-width="1.26923" stroke-linecap="round" stroke-linejoin="round"/>
    <path d="M6.3335 18.1116V13.0346C6.3335 12.5673 6.71233 12.1885 7.17965 12.1885H8.44888C8.9162 12.1885 9.29504 12.5673 9.29504 13.0346V14.7975C9.29504 15.2648 8.9162 15.6436 8.44888 15.6436H6.82709" stroke="#005CA9" stroke-width="1.26923" stroke-linecap="round"/>
    <path d="M18.5391 18.1116L18.5391 15.15M21.5006 12.1885H19.3852C18.9179 12.1885 18.5391 12.5673 18.5391 13.0346L18.5391 15.15M18.5391 15.15H21.007" stroke="#005CA9" stroke-width="1.26923" stroke-linecap="round"/>
</svg>
